<svg class="header__logo-svg" viewBox="0 0 250 280" xmlns="http://www.w3.org/2000/svg" aria-label="Fuji OS Logo">
    <style type="text/css">
        .fuji-os-text-fuji{fill:#222222;font-family:'Helvetica-Bold', 'Helvetica', sans-serif;font-weight:bold;font-size:32px;}
        .fuji-os-text-os{fill:#CC0000;font-family:'Helvetica-Bold', 'Helvetica', sans-serif;font-weight:bold;font-size:32px;}
    </style>
    <g id="fuji-os-logo-mark">
        <g id="logo-enso-ring">
            <path fill="#222222" d="M125,5C189.9,5,245,59.8,245,124.3c0,61.9-49.3,113.4-112.5,120.2c-1.1,0.1-2.2,0.2-3.2,0.2 C60.1,245,5,190.2,5,125.7C5,63.8,54.3,13.2,117.5,6C119.9,5.5,122.5,5,125,5 M125,0C55.9,0,0,55.9,0,125 c0,66.1,51.2,120.5,116.3,124.8l0,0C118.8,249.9,121.9,250,125,250c74.6,0,125-56,125-125S199.6,0,125,0L125,0z"/>
            <circle fill="#222222" cx="218" cy="195" r="1.5"/>
            <circle fill="#222222" cx="225" cy="205" r="1"/>
            <circle fill="#222222" cx="215" cy="208" r="0.8"/>
            <path fill="#222222" d="M210.5,200.5m-2.5,0a2.5,2.5 0 1,0 5,0a2.5,2.5 0 1,0 -5,0"/>
        </g>
        <g id="logo-fuji-circuit">
            <path fill="none" stroke="#CC0000" stroke-width="2" stroke-miterlimit="10" d="M125,97.5 L125,182.5 M112.5,110 L100,122.5 M100,122.5 L100,132.5 M100,122.5 L87.5,122.5 M112.5,122.5 L112.5,130 M112.5,130 L106.5,136.5 M137.5,110 L150,122.5 M150,122.5 L150,132.5 M150,122.5 L162.5,122.5 M137.5,122.5 L137.5,130 M137.5,130 L143.5,136.5 M125,97.5 L112.5,110 M125,97.5 L137.5,110 M100,132.5 L92.5,140 M87.5,122.5 L75,122.5 M75,122.5 L75,145 M112.5,130 L105,137.5 M106.5,136.5 L100,142.5 M150,132.5 L157.5,140 M162.5,122.5 L175,122.5 M175,122.5 L175,145 M137.5,130 L145,137.5 M143.5,136.5 L150,142.5 M92.5,140 L92.5,147.5 M75,145 L82.5,152.5 M100,142.5 L92.5,147.5 M157.5,140 L157.5,147.5 M175,145 L167.5,152.5 M150,142.5 L157.5,147.5 M92.5,147.5 L82.5,152.5 M82.5,152.5 L82.5,160 M92.5,147.5 L100,155 M157.5,147.5 L167.5,152.5 M167.5,152.5 L167.5,160 M157.5,147.5 L150,155 M125,182.5 L112.5,170 M112.5,170 L112.5,150 M112.5,150 L100,155 M125,182.5 L137.5,170 M137.5,170 L137.5,150 M137.5,150 L150,155 M100,155 L100,162.5 M150,155 L150,162.5"/>
            <circle fill="#CC0000" stroke="#CC0000" stroke-width="0.5" cx="125" cy="97.5" r="2.5"/> <circle fill="#FFFFFF" stroke="#CC0000" stroke-width="1.5" cx="112.5" cy="110" r="2.5"/> <circle fill="#FFFFFF" stroke="#CC0000" stroke-width="1.5" cx="100" cy="122.5" r="2.5"/> <circle fill="#FFFFFF" stroke="#CC0000" stroke-width="1.5" cx="100" cy="132.5" r="2.5"/> <circle fill="#FFFFFF" stroke="#CC0000" stroke-width="1.5" cx="87.5" cy="122.5" r="2.5"/> <circle fill="#FFFFFF" stroke="#CC0000" stroke-width="1.5" cx="112.5" cy="122.5" r="2.5"/> <circle fill="#FFFFFF" stroke="#CC0000" stroke-width="1.5" cx="112.5" cy="130" r="2.5"/> <circle fill="#FFFFFF" stroke="#CC0000" stroke-width="1.5" cx="106.5" cy="136.5" r="2.5"/> <circle fill="#FFFFFF" stroke="#CC0000" stroke-width="1.5" cx="137.5" cy="110" r="2.5"/> <circle fill="#FFFFFF" stroke="#CC0000" stroke-width="1.5" cx="150" cy="122.5" r="2.5"/> <circle fill="#FFFFFF" stroke="#CC0000" stroke-width="1.5" cx="150" cy="132.5" r="2.5"/> <circle fill="#FFFFFF" stroke="#CC0000" stroke-width="1.5" cx="162.5" cy="122.5" r="2.5"/> <circle fill="#FFFFFF" stroke="#CC0000" stroke-width="1.5" cx="137.5" cy="122.5" r="2.5"/> <circle fill="#FFFFFF" stroke="#CC0000" stroke-width="1.5" cx="137.5" cy="130" r="2.5"/> <circle fill="#FFFFFF" stroke="#CC0000" stroke-width="1.5" cx="143.5" cy="136.5" r="2.5"/> <circle fill="#FFFFFF" stroke="#CC0000" stroke-width="1.5" cx="92.5" cy="140" r="2.5"/> <circle fill="#FFFFFF" stroke="#CC0000" stroke-width="1.5" cx="75" cy="122.5" r="2.5"/> <circle fill="#FFFFFF" stroke="#CC0000" stroke-width="1.5" cx="75" cy="145" r="2.5"/> <circle fill="#FFFFFF" stroke="#CC0000" stroke-width="1.5" cx="105" cy="137.5" r="2.5"/> <circle fill="#FFFFFF" stroke="#CC0000" stroke-width="1.5" cx="100" cy="142.5" r="2.5"/> <circle fill="#FFFFFF" stroke="#CC0000" stroke-width="1.5" cx="157.5" cy="140" r="2.5"/> <circle fill="#FFFFFF" stroke="#CC0000" stroke-width="1.5" cx="175" cy="122.5" r="2.5"/> <circle fill="#FFFFFF" stroke="#CC0000" stroke-width="1.5" cx="175" cy="145" r="2.5"/> <circle fill="#FFFFFF" stroke="#CC0000" stroke-width="1.5" cx="145" cy="137.5" r="2.5"/> <circle fill="#FFFFFF" stroke="#CC0000" stroke-width="1.5" cx="150" cy="142.5" r="2.5"/> <circle fill="#FFFFFF" stroke="#CC0000" stroke-width="1.5" cx="92.5" cy="147.5" r="2.5"/> <circle fill="#FFFFFF" stroke="#CC0000" stroke-width="1.5" cx="82.5" cy="152.5" r="2.5"/> <circle fill="#FFFFFF" stroke="#CC0000" stroke-width="1.5" cx="82.5" cx="160" r="2.5"/> <circle fill="#FFFFFF" stroke="#CC0000" stroke-width="1.5" cx="100" cy="155" r="2.5"/> <circle fill="#FFFFFF" stroke="#CC0000" stroke-width="1.5" cx="167.5" cy="152.5" r="2.5"/> <circle fill="#FFFFFF" stroke="#CC0000" stroke-width="1.5" cx="167.5" cy="160" r="2.5"/> <circle fill="#FFFFFF" stroke="#CC0000" stroke-width="1.5" cx="150" cy="155" r="2.5"/> <circle fill="#FFFFFF" stroke="#CC0000" stroke-width="1.5" cx="125" cy="182.5" r="2.5"/> <circle fill="#FFFFFF" stroke="#CC0000" stroke-width="1.5" cx="112.5" cy="170" r="2.5"/> <circle fill="#FFFFFF" stroke="#CC0000" stroke-width="1.5" cx="112.5" cy="150" r="2.5"/> <circle fill="#FFFFFF" stroke="#CC0000" stroke-width="1.5" cx="137.5" cy="170" r="2.5"/> <circle fill="#FFFFFF" stroke="#CC0000" stroke-width="1.5" cx="137.5" cy="150" r="2.5"/> <circle fill="#FFFFFF" stroke="#CC0000" stroke-width="1.5" cx="100" cy="162.5" r="2.5"/> <circle fill="#FFFFFF" stroke="#CC0000" stroke-width="1.5" cx="150" cy="162.5" r="2.5"/>
        </g>
    </g>
    <g id="fuji-os-logotype" transform="translate(45, 270)">
        <text class="fuji-os-text-fuji">FUJI</text>
        <text class="fuji-os-text-os" x="80">OS</text>
    </g>
</svg>